<mxfile host="app.diagrams.net" modified="2022-11-16T04:44:14.903Z" agent="5.0 (Macintosh; Intel Mac OS X 10_15_7) AppleWebKit/537.36 (KHTML, like Gecko) Chrome/107.0.0.0 Safari/537.36" etag="olmVHyk5oucy-2NgG-kh" version="20.5.3" type="github">
  <diagram id="C5RBs43oDa-KdzZeNtuy" name="Page-1">
    <mxGraphModel dx="946" dy="562" grid="1" gridSize="10" guides="1" tooltips="1" connect="1" arrows="1" fold="1" page="1" pageScale="1" pageWidth="827" pageHeight="1169" math="0" shadow="0">
      <root>
        <mxCell id="WIyWlLk6GJQsqaUBKTNV-0" />
        <mxCell id="WIyWlLk6GJQsqaUBKTNV-1" parent="WIyWlLk6GJQsqaUBKTNV-0" />
        <mxCell id="AuGHg46hdEF09C2vVA98-13" value="" style="edgeStyle=orthogonalEdgeStyle;rounded=0;orthogonalLoop=1;jettySize=auto;html=1;endArrow=classic;endFill=1;" edge="1" parent="WIyWlLk6GJQsqaUBKTNV-1" source="WIyWlLk6GJQsqaUBKTNV-6" target="WIyWlLk6GJQsqaUBKTNV-12">
          <mxGeometry relative="1" as="geometry" />
        </mxCell>
        <mxCell id="AuGHg46hdEF09C2vVA98-14" value="Yes" style="edgeLabel;html=1;align=center;verticalAlign=middle;resizable=0;points=[];" vertex="1" connectable="0" parent="AuGHg46hdEF09C2vVA98-13">
          <mxGeometry x="-0.16" y="4" relative="1" as="geometry">
            <mxPoint y="1" as="offset" />
          </mxGeometry>
        </mxCell>
        <mxCell id="WIyWlLk6GJQsqaUBKTNV-6" value="Finds GS products" style="rhombus;whiteSpace=wrap;html=1;shadow=0;fontFamily=Helvetica;fontSize=12;align=center;strokeWidth=1;spacing=6;spacingTop=-4;" parent="WIyWlLk6GJQsqaUBKTNV-1" vertex="1">
          <mxGeometry x="370" y="50" width="100" height="80" as="geometry" />
        </mxCell>
        <mxCell id="AuGHg46hdEF09C2vVA98-16" value="" style="edgeStyle=orthogonalEdgeStyle;rounded=0;orthogonalLoop=1;jettySize=auto;html=1;endArrow=classic;endFill=1;" edge="1" parent="WIyWlLk6GJQsqaUBKTNV-1" source="WIyWlLk6GJQsqaUBKTNV-12" target="AuGHg46hdEF09C2vVA98-15">
          <mxGeometry relative="1" as="geometry" />
        </mxCell>
        <mxCell id="WIyWlLk6GJQsqaUBKTNV-12" value="Orders products" style="rounded=1;whiteSpace=wrap;html=1;fontSize=12;glass=0;strokeWidth=1;shadow=0;" parent="WIyWlLk6GJQsqaUBKTNV-1" vertex="1">
          <mxGeometry x="520" y="70" width="120" height="40" as="geometry" />
        </mxCell>
        <mxCell id="AuGHg46hdEF09C2vVA98-11" value="" style="edgeStyle=orthogonalEdgeStyle;rounded=0;orthogonalLoop=1;jettySize=auto;html=1;endArrow=classic;endFill=1;" edge="1" parent="WIyWlLk6GJQsqaUBKTNV-1" source="AuGHg46hdEF09C2vVA98-7" target="WIyWlLk6GJQsqaUBKTNV-6">
          <mxGeometry relative="1" as="geometry" />
        </mxCell>
        <mxCell id="AuGHg46hdEF09C2vVA98-7" value="Actor" style="shape=umlActor;verticalLabelPosition=bottom;verticalAlign=top;html=1;outlineConnect=0;" vertex="1" parent="WIyWlLk6GJQsqaUBKTNV-1">
          <mxGeometry x="250" y="60" width="30" height="60" as="geometry" />
        </mxCell>
        <mxCell id="AuGHg46hdEF09C2vVA98-12" value="Searches &lt;br&gt;for products" style="text;html=1;align=center;verticalAlign=middle;resizable=0;points=[];autosize=1;strokeColor=none;fillColor=none;" vertex="1" parent="WIyWlLk6GJQsqaUBKTNV-1">
          <mxGeometry x="265" y="60" width="90" height="40" as="geometry" />
        </mxCell>
        <mxCell id="AuGHg46hdEF09C2vVA98-18" value="" style="edgeStyle=orthogonalEdgeStyle;rounded=0;orthogonalLoop=1;jettySize=auto;html=1;endArrow=classic;endFill=1;" edge="1" parent="WIyWlLk6GJQsqaUBKTNV-1" source="AuGHg46hdEF09C2vVA98-15" target="AuGHg46hdEF09C2vVA98-17">
          <mxGeometry relative="1" as="geometry" />
        </mxCell>
        <mxCell id="AuGHg46hdEF09C2vVA98-15" value="Selected shipment, completes payment" style="whiteSpace=wrap;html=1;rounded=1;glass=0;strokeWidth=1;shadow=0;" vertex="1" parent="WIyWlLk6GJQsqaUBKTNV-1">
          <mxGeometry x="720" y="60" width="120" height="60" as="geometry" />
        </mxCell>
        <mxCell id="AuGHg46hdEF09C2vVA98-17" value="Checkout and order complete" style="rounded=1;whiteSpace=wrap;html=1;glass=0;strokeWidth=1;shadow=0;" vertex="1" parent="WIyWlLk6GJQsqaUBKTNV-1">
          <mxGeometry x="920" y="60" width="120" height="60" as="geometry" />
        </mxCell>
        <mxCell id="AuGHg46hdEF09C2vVA98-21" value="" style="edgeStyle=orthogonalEdgeStyle;rounded=0;orthogonalLoop=1;jettySize=auto;html=1;endArrow=classic;endFill=1;" edge="1" parent="WIyWlLk6GJQsqaUBKTNV-1" source="AuGHg46hdEF09C2vVA98-19" target="AuGHg46hdEF09C2vVA98-20">
          <mxGeometry relative="1" as="geometry" />
        </mxCell>
        <mxCell id="AuGHg46hdEF09C2vVA98-19" value="Actor" style="shape=umlActor;verticalLabelPosition=bottom;verticalAlign=top;html=1;outlineConnect=0;" vertex="1" parent="WIyWlLk6GJQsqaUBKTNV-1">
          <mxGeometry x="250" y="200" width="30" height="60" as="geometry" />
        </mxCell>
        <mxCell id="AuGHg46hdEF09C2vVA98-23" value="" style="edgeStyle=orthogonalEdgeStyle;rounded=0;orthogonalLoop=1;jettySize=auto;html=1;endArrow=classic;endFill=1;" edge="1" parent="WIyWlLk6GJQsqaUBKTNV-1" source="AuGHg46hdEF09C2vVA98-20" target="AuGHg46hdEF09C2vVA98-22">
          <mxGeometry relative="1" as="geometry" />
        </mxCell>
        <mxCell id="AuGHg46hdEF09C2vVA98-20" value="Searches for products with trusted shipment of 100+ from the filter" style="whiteSpace=wrap;html=1;verticalAlign=top;fillColor=#dae8fc;strokeColor=#6c8ebf;" vertex="1" parent="WIyWlLk6GJQsqaUBKTNV-1">
          <mxGeometry x="315" y="200" width="120" height="60" as="geometry" />
        </mxCell>
        <mxCell id="AuGHg46hdEF09C2vVA98-25" value="Yes" style="edgeStyle=orthogonalEdgeStyle;rounded=0;orthogonalLoop=1;jettySize=auto;html=1;endArrow=classic;endFill=1;" edge="1" parent="WIyWlLk6GJQsqaUBKTNV-1" source="AuGHg46hdEF09C2vVA98-22" target="AuGHg46hdEF09C2vVA98-24">
          <mxGeometry relative="1" as="geometry" />
        </mxCell>
        <mxCell id="AuGHg46hdEF09C2vVA98-22" value="Finds GS products" style="rhombus;whiteSpace=wrap;html=1;shadow=0;fontFamily=Helvetica;fontSize=12;align=center;strokeWidth=1;spacing=6;spacingTop=-4;" vertex="1" parent="WIyWlLk6GJQsqaUBKTNV-1">
          <mxGeometry x="510" y="190" width="100" height="80" as="geometry" />
        </mxCell>
        <mxCell id="AuGHg46hdEF09C2vVA98-27" value="" style="edgeStyle=orthogonalEdgeStyle;rounded=0;orthogonalLoop=1;jettySize=auto;html=1;endArrow=classic;endFill=1;" edge="1" parent="WIyWlLk6GJQsqaUBKTNV-1" source="AuGHg46hdEF09C2vVA98-24" target="AuGHg46hdEF09C2vVA98-26">
          <mxGeometry relative="1" as="geometry" />
        </mxCell>
        <mxCell id="AuGHg46hdEF09C2vVA98-24" value="Orders products" style="whiteSpace=wrap;html=1;shadow=0;strokeWidth=1;spacing=6;spacingTop=-4;" vertex="1" parent="WIyWlLk6GJQsqaUBKTNV-1">
          <mxGeometry x="680" y="200" width="120" height="60" as="geometry" />
        </mxCell>
        <mxCell id="AuGHg46hdEF09C2vVA98-29" value="" style="edgeStyle=orthogonalEdgeStyle;rounded=0;orthogonalLoop=1;jettySize=auto;html=1;endArrow=classic;endFill=1;" edge="1" parent="WIyWlLk6GJQsqaUBKTNV-1" source="AuGHg46hdEF09C2vVA98-26" target="AuGHg46hdEF09C2vVA98-28">
          <mxGeometry relative="1" as="geometry" />
        </mxCell>
        <mxCell id="AuGHg46hdEF09C2vVA98-26" value="Selects shipment, completes payment" style="whiteSpace=wrap;html=1;shadow=0;strokeWidth=1;spacing=6;spacingTop=-4;" vertex="1" parent="WIyWlLk6GJQsqaUBKTNV-1">
          <mxGeometry x="880" y="200" width="120" height="60" as="geometry" />
        </mxCell>
        <mxCell id="AuGHg46hdEF09C2vVA98-28" value="Checkout and order complete" style="whiteSpace=wrap;html=1;shadow=0;strokeWidth=1;spacing=6;spacingTop=-4;" vertex="1" parent="WIyWlLk6GJQsqaUBKTNV-1">
          <mxGeometry x="1080" y="200" width="120" height="60" as="geometry" />
        </mxCell>
        <mxCell id="AuGHg46hdEF09C2vVA98-30" value="" style="edgeStyle=orthogonalEdgeStyle;rounded=0;orthogonalLoop=1;jettySize=auto;html=1;endArrow=classic;endFill=1;" edge="1" parent="WIyWlLk6GJQsqaUBKTNV-1" source="AuGHg46hdEF09C2vVA98-31" target="AuGHg46hdEF09C2vVA98-33">
          <mxGeometry relative="1" as="geometry" />
        </mxCell>
        <mxCell id="AuGHg46hdEF09C2vVA98-31" value="Actor" style="shape=umlActor;verticalLabelPosition=bottom;verticalAlign=top;html=1;outlineConnect=0;" vertex="1" parent="WIyWlLk6GJQsqaUBKTNV-1">
          <mxGeometry x="252" y="305" width="30" height="60" as="geometry" />
        </mxCell>
        <mxCell id="AuGHg46hdEF09C2vVA98-32" value="" style="edgeStyle=orthogonalEdgeStyle;rounded=0;orthogonalLoop=1;jettySize=auto;html=1;endArrow=classic;endFill=1;" edge="1" parent="WIyWlLk6GJQsqaUBKTNV-1" source="AuGHg46hdEF09C2vVA98-33" target="AuGHg46hdEF09C2vVA98-35">
          <mxGeometry relative="1" as="geometry" />
        </mxCell>
        <mxCell id="AuGHg46hdEF09C2vVA98-33" value="Searches for products with no delay in shipment from the filter" style="whiteSpace=wrap;html=1;verticalAlign=top;fillColor=#dae8fc;strokeColor=#6c8ebf;" vertex="1" parent="WIyWlLk6GJQsqaUBKTNV-1">
          <mxGeometry x="317" y="305" width="120" height="60" as="geometry" />
        </mxCell>
        <mxCell id="AuGHg46hdEF09C2vVA98-34" value="Yes" style="edgeStyle=orthogonalEdgeStyle;rounded=0;orthogonalLoop=1;jettySize=auto;html=1;endArrow=classic;endFill=1;" edge="1" parent="WIyWlLk6GJQsqaUBKTNV-1" source="AuGHg46hdEF09C2vVA98-35" target="AuGHg46hdEF09C2vVA98-37">
          <mxGeometry relative="1" as="geometry" />
        </mxCell>
        <mxCell id="AuGHg46hdEF09C2vVA98-35" value="Finds GS products" style="rhombus;whiteSpace=wrap;html=1;shadow=0;fontFamily=Helvetica;fontSize=12;align=center;strokeWidth=1;spacing=6;spacingTop=-4;" vertex="1" parent="WIyWlLk6GJQsqaUBKTNV-1">
          <mxGeometry x="512" y="295" width="100" height="80" as="geometry" />
        </mxCell>
        <mxCell id="AuGHg46hdEF09C2vVA98-36" value="" style="edgeStyle=orthogonalEdgeStyle;rounded=0;orthogonalLoop=1;jettySize=auto;html=1;endArrow=classic;endFill=1;" edge="1" parent="WIyWlLk6GJQsqaUBKTNV-1" source="AuGHg46hdEF09C2vVA98-37" target="AuGHg46hdEF09C2vVA98-39">
          <mxGeometry relative="1" as="geometry" />
        </mxCell>
        <mxCell id="AuGHg46hdEF09C2vVA98-37" value="Orders products" style="whiteSpace=wrap;html=1;shadow=0;strokeWidth=1;spacing=6;spacingTop=-4;" vertex="1" parent="WIyWlLk6GJQsqaUBKTNV-1">
          <mxGeometry x="682" y="305" width="120" height="60" as="geometry" />
        </mxCell>
        <mxCell id="AuGHg46hdEF09C2vVA98-38" value="" style="edgeStyle=orthogonalEdgeStyle;rounded=0;orthogonalLoop=1;jettySize=auto;html=1;endArrow=classic;endFill=1;" edge="1" parent="WIyWlLk6GJQsqaUBKTNV-1" source="AuGHg46hdEF09C2vVA98-39" target="AuGHg46hdEF09C2vVA98-40">
          <mxGeometry relative="1" as="geometry" />
        </mxCell>
        <mxCell id="AuGHg46hdEF09C2vVA98-39" value="Selects shipment, completes payment" style="whiteSpace=wrap;html=1;shadow=0;strokeWidth=1;spacing=6;spacingTop=-4;" vertex="1" parent="WIyWlLk6GJQsqaUBKTNV-1">
          <mxGeometry x="882" y="305" width="120" height="60" as="geometry" />
        </mxCell>
        <mxCell id="AuGHg46hdEF09C2vVA98-40" value="Checkout and order complete" style="whiteSpace=wrap;html=1;shadow=0;strokeWidth=1;spacing=6;spacingTop=-4;" vertex="1" parent="WIyWlLk6GJQsqaUBKTNV-1">
          <mxGeometry x="1082" y="305" width="120" height="60" as="geometry" />
        </mxCell>
        <mxCell id="AuGHg46hdEF09C2vVA98-41" value="" style="edgeStyle=orthogonalEdgeStyle;rounded=0;orthogonalLoop=1;jettySize=auto;html=1;endArrow=classic;endFill=1;" edge="1" parent="WIyWlLk6GJQsqaUBKTNV-1" source="AuGHg46hdEF09C2vVA98-42" target="AuGHg46hdEF09C2vVA98-44">
          <mxGeometry relative="1" as="geometry" />
        </mxCell>
        <mxCell id="AuGHg46hdEF09C2vVA98-42" value="Actor" style="shape=umlActor;verticalLabelPosition=bottom;verticalAlign=top;html=1;outlineConnect=0;" vertex="1" parent="WIyWlLk6GJQsqaUBKTNV-1">
          <mxGeometry x="250" y="425" width="30" height="60" as="geometry" />
        </mxCell>
        <mxCell id="AuGHg46hdEF09C2vVA98-43" value="" style="edgeStyle=orthogonalEdgeStyle;rounded=0;orthogonalLoop=1;jettySize=auto;html=1;endArrow=classic;endFill=1;" edge="1" parent="WIyWlLk6GJQsqaUBKTNV-1" source="AuGHg46hdEF09C2vVA98-44" target="AuGHg46hdEF09C2vVA98-46">
          <mxGeometry relative="1" as="geometry" />
        </mxCell>
        <mxCell id="AuGHg46hdEF09C2vVA98-44" value="Searches for products with 100+ shipment, no delay, and quality+ trusted badges from filter" style="whiteSpace=wrap;html=1;verticalAlign=top;fillColor=#dae8fc;strokeColor=#6c8ebf;" vertex="1" parent="WIyWlLk6GJQsqaUBKTNV-1">
          <mxGeometry x="317" y="410" width="123" height="90" as="geometry" />
        </mxCell>
        <mxCell id="AuGHg46hdEF09C2vVA98-45" value="Yes" style="edgeStyle=orthogonalEdgeStyle;rounded=0;orthogonalLoop=1;jettySize=auto;html=1;endArrow=classic;endFill=1;" edge="1" parent="WIyWlLk6GJQsqaUBKTNV-1" source="AuGHg46hdEF09C2vVA98-46" target="AuGHg46hdEF09C2vVA98-48">
          <mxGeometry relative="1" as="geometry" />
        </mxCell>
        <mxCell id="AuGHg46hdEF09C2vVA98-46" value="Finds GS products" style="rhombus;whiteSpace=wrap;html=1;shadow=0;fontFamily=Helvetica;fontSize=12;align=center;strokeWidth=1;spacing=6;spacingTop=-4;" vertex="1" parent="WIyWlLk6GJQsqaUBKTNV-1">
          <mxGeometry x="510" y="415" width="100" height="80" as="geometry" />
        </mxCell>
        <mxCell id="AuGHg46hdEF09C2vVA98-47" value="" style="edgeStyle=orthogonalEdgeStyle;rounded=0;orthogonalLoop=1;jettySize=auto;html=1;endArrow=classic;endFill=1;" edge="1" parent="WIyWlLk6GJQsqaUBKTNV-1" source="AuGHg46hdEF09C2vVA98-48" target="AuGHg46hdEF09C2vVA98-50">
          <mxGeometry relative="1" as="geometry" />
        </mxCell>
        <mxCell id="AuGHg46hdEF09C2vVA98-48" value="Orders products" style="whiteSpace=wrap;html=1;shadow=0;strokeWidth=1;spacing=6;spacingTop=-4;" vertex="1" parent="WIyWlLk6GJQsqaUBKTNV-1">
          <mxGeometry x="682" y="425" width="120" height="60" as="geometry" />
        </mxCell>
        <mxCell id="AuGHg46hdEF09C2vVA98-49" value="" style="edgeStyle=orthogonalEdgeStyle;rounded=0;orthogonalLoop=1;jettySize=auto;html=1;endArrow=classic;endFill=1;" edge="1" parent="WIyWlLk6GJQsqaUBKTNV-1" source="AuGHg46hdEF09C2vVA98-50" target="AuGHg46hdEF09C2vVA98-51">
          <mxGeometry relative="1" as="geometry" />
        </mxCell>
        <mxCell id="AuGHg46hdEF09C2vVA98-50" value="Selects shipment, completes payment" style="whiteSpace=wrap;html=1;shadow=0;strokeWidth=1;spacing=6;spacingTop=-4;" vertex="1" parent="WIyWlLk6GJQsqaUBKTNV-1">
          <mxGeometry x="882" y="425" width="120" height="60" as="geometry" />
        </mxCell>
        <mxCell id="AuGHg46hdEF09C2vVA98-51" value="Checkout and order complete" style="whiteSpace=wrap;html=1;shadow=0;strokeWidth=1;spacing=6;spacingTop=-4;" vertex="1" parent="WIyWlLk6GJQsqaUBKTNV-1">
          <mxGeometry x="1082" y="410" width="120" height="60" as="geometry" />
        </mxCell>
        <mxCell id="AuGHg46hdEF09C2vVA98-58" value="Usual GS product flow" style="shape=process;whiteSpace=wrap;html=1;backgroundOutline=1;fillColor=#d5e8d4;strokeColor=#82b366;" vertex="1" parent="WIyWlLk6GJQsqaUBKTNV-1">
          <mxGeometry x="120" y="50" width="120" height="60" as="geometry" />
        </mxCell>
        <mxCell id="AuGHg46hdEF09C2vVA98-59" value="Additional filter of 100+ shipment included" style="shape=process;whiteSpace=wrap;html=1;backgroundOutline=1;fillColor=#fff2cc;strokeColor=#d6b656;" vertex="1" parent="WIyWlLk6GJQsqaUBKTNV-1">
          <mxGeometry x="120" y="190" width="120" height="60" as="geometry" />
        </mxCell>
        <mxCell id="AuGHg46hdEF09C2vVA98-60" value="Additional filter of no delay in shipment included" style="shape=process;whiteSpace=wrap;html=1;backgroundOutline=1;fillColor=#fff2cc;strokeColor=#d6b656;" vertex="1" parent="WIyWlLk6GJQsqaUBKTNV-1">
          <mxGeometry x="120" y="305" width="120" height="60" as="geometry" />
        </mxCell>
        <mxCell id="AuGHg46hdEF09C2vVA98-61" value="Combination of filters included" style="shape=process;whiteSpace=wrap;html=1;backgroundOutline=1;fillColor=#fff2cc;strokeColor=#d6b656;" vertex="1" parent="WIyWlLk6GJQsqaUBKTNV-1">
          <mxGeometry x="120" y="430" width="120" height="60" as="geometry" />
        </mxCell>
        <mxCell id="AuGHg46hdEF09C2vVA98-62" value="Use cases at Actor level" style="whiteSpace=wrap;html=1;fillColor=#f8cecc;strokeColor=#b85450;" vertex="1" parent="WIyWlLk6GJQsqaUBKTNV-1">
          <mxGeometry x="10" y="40" width="110" height="470" as="geometry" />
        </mxCell>
      </root>
    </mxGraphModel>
  </diagram>
</mxfile>
